:SAMPLES-PER-SECOND 30
:FRAME-RANGE 1-2643
:FULLY-SPECIFIED
:DEGREES
2148
root  -13.7139 30.5746 -112.412 4.3396 -11.9582 5.2044
RightUpLeg  -48.8165 -10.4369 -1.28266
RightLeg  87.0648 -0.196644 -26.8343
RightFoot  -28.0841 2.31608 16.9331
RightToes  7.56698e-010 0 -3.6325e-017
Spine  14.7371 -5.77226 -15.2266
Spine1  -13.3054 -6.89813 0.673743
HEad  -1.96473 38.8357 -5.93101
LeftShoulder1  2.36924 -3.90348 -25.8436
LeftArm  28.2764 -48.5984 -86.4779
LeftForeArm  15.5653 -25.1958 -4.57493
LeftHand  0.048205 -0.888166 -0.807252
RightShoulder  -0.275792 -4.55339 19.0722
RightArm  10.5383 -18.5982 8.24622
RightForeArm  -7.92089 44.8068 11.6483
RightHand  -0.167415 -0.402318 -3.87595
LeftUpLeg  21.1 0.775347 21.3835
LeftLeg  29.2118 3.31494 2.35261
LeftFoot  -16.3004 -2.45613 -54.5842
LeftToes  1.48244e-010 1.61973e-010 3.308e-011
2149
root  -15.0101 30.9344 -109.797 5.48926 -19.5505 4.59333
RightUpLeg  -41.5723 -11.5573 1.3394
RightLeg  83.0124 -2.27093 -26.8993
RightFoot  -35.6169 4.75978 22.9957
RightToes  7.56698e-010 0 -3.6325e-017
Spine  11.3668 -5.81442 -11.039
Spine1  -13.2912 -5.94547 -0.596682
HEad  1.13903 40.7853 -6.15573
LeftShoulder1  2.24844 -3.42901 -26.3043
LeftArm  18.7524 -46.202 -75.3909
LeftForeArm  11.6525 -24.1474 -4.5554
LeftHand  0.136829 -1.27127 -2.27609
RightShoulder  0.823372 -0.612008 22.3863
RightArm  10.3168 -13.1017 12.5171
RightForeArm  -7.48843 50.4567 14.1947
RightHand  -0.157898 -0.549604 -3.74671
LeftUpLeg  24.7553 -0.856517 16.6343
LeftLeg  28.4787 10.3451 6.36408
LeftFoot  9.27158 9.14217 -47.8467
LeftToes  1.48244e-010 1.61973e-010 3.308e-011
2150
root  -16.0915 31.1316 -107.564 7.43848 -26.9371 2.72789
RightUpLeg  -35.742 -9.13759 1.302
RightLeg  79.4036 -2.63712 -18.5495
RightFoot  -41.1004 5.5671 21.7957
RightToes  7.56698e-010 0 -3.6325e-017
Spine  8.88323 -4.95502 -4.42354
Spine1  -11.037 -3.82903 -2.16595
HEad  -0.845471 42.6361 -9.17608
LeftShoulder1  2.24761 -2.87308 -29.1957
LeftArm  8.16277 -42.4424 -59.7618
LeftForeArm  11.0345 -20.7783 -5.59845
LeftHand  0.101828 -0.936294 -1.78613
RightShoulder  2.93682 5.14745 27.9925
RightArm  10.4847 -6.23006 17.3565
RightForeArm  -7.18443 51.9289 14.9623
RightHand  -0.14337 -0.704729 -3.48904
LeftUpLeg  20.2072 3.13689 13.4734
LeftLeg  39.3269 -6.47501 -5.29218
LeftFoot  20.0576 5.93231 -21.3443
LeftToes  1.48244e-010 1.61973e-010 3.308e-011
2151
root  -17.0809 31.1877 -105.488 9.54004 -33.9656 -0.864076
RightUpLeg  -31.0354 -5.70534 2.28376
RightLeg  77.5732 -2.19518 -13.1798
RightFoot  -42.1921 5.68683 21.4543
RightToes  7.56698e-010 0 -3.6325e-017
Spine  9.8689 -3.79179 4.25351
Spine1  -8.88096 -1.43469 -5.85867
HEad  -8.71153 44.0715 -16.773
LeftShoulder1  2.22051 -2.21231 -32.819
LeftArm  2.42863 -34.7361 -43.538
LeftForeArm  5.26121 -21.7326 -5.2856
LeftHand  0.15348 -0.704101 -2.86965
RightShoulder  6.5319 12.4606 34.9694
RightArm  10.0762 2.33199 21.293
RightForeArm  -7.09682 53.1445 15.654
RightHand  -0.107605 -0.405736 -2.47456
LeftUpLeg  11.4623 7.47649 12.8054
LeftLeg  57.4488 -5.42033 -8.57724
LeftFoot  17.0026 6.06723 -24.1363
LeftToes  1.48244e-010 1.61973e-010 3.308e-011
2152
root  -18.1025 31.3125 -103.37 12.481 -39.2433 -4.77761
RightUpLeg  -26.1979 -3.21855 2.8192
RightLeg  74.7041 -1.69759 -8.29857
RightFoot  -42.4775 5.6897 21.2694
RightToes  7.56698e-010 0 -3.6325e-017
Spine  12.3258 -2.84035 11.6339
Spine1  -6.75673 0.903905 -8.94083
HEad  -17.4715 43.234 -23.4886
LeftShoulder1  2.14553 -1.68057 -35.3191
LeftArm  2.81999 -24.9909 -32.1931
LeftForeArm  1.59893 -23.441 -4.96253
LeftHand  0.169124 -0.68074 -3.1843
RightShoulder  10.8595 19.7344 40.482
RightArm  9.38385 10.7064 24.5109
RightForeArm  -1.56483 56.5123 17.3916
RightHand  -0.113826 0.532318 -2.29959
LeftUpLeg  -2.17821 10.5478 11.8759
LeftLeg  75.7571 0.284847 2.54345
LeftFoot  13.786 4.02375 -18.3054
LeftToes  1.48244e-010 1.61973e-010 3.308e-011
2153
root  -19.4411 31.4157 -100.971 14.2041 -43.1026 -6.17463
RightUpLeg  -19.5308 -1.16065 0.847917
RightLeg  69.5069 -1.01301 -3.85639
RightFoot  -44.3815 5.97613 20.9899
RightToes  7.56698e-010 0 -3.6325e-017
Spine  14.7334 -1.86161 15.3768
Spine1  -5.78421 2.95091 -12.2586
HEad  -22.5889 40.9253 -25.3481
LeftShoulder1  1.93861 -1.15654 -35.5208
LeftArm  2.48803 -13.651 -26.1249
LeftForeArm  2.78103 -25.6643 -5.35798
LeftHand  0.183652 -0.459873 -3.62073
RightShoulder  15.2975 27.3764 42.9177
RightArm  5.97086 18.6512 27.8211
RightForeArm  4.81136 58.275 18.119
RightHand  -0.0955698 1.77524 -1.70915
LeftUpLeg  -18.7168 12.0292 7.88879
LeftLeg  89.6178 -0.495643 8.27409
LeftFoot  4.39419 1.02792 -7.62494
LeftToes  1.48244e-010 1.61973e-010 3.308e-011
2154
root  -21.2612 31.559 -98.2382 14.5183 -46.2837 -6.07653
RightUpLeg  -10.2903 0.637937 -1.6895
RightLeg  60.9731 -0.708262 -1.93477
RightFoot  -45.8181 6.37826 21.3758
RightToes  7.56698e-010 0 -3.6325e-017
Spine  15.5623 -0.0874288 15.5008
Spine1  -4.12828 5.01499 -15.1057
HEad  -24.1262 38.0999 -23.9968
LeftShoulder1  1.75329 -0.848909 -34.223
LeftArm  0.594925 -0.502036 -22.5334
LeftForeArm  4.96001 -30.1683 -6.30663
LeftHand  0.185673 -0.362334 -3.73505
RightShoulder  17.7969 34.0523 40.6444
RightArm  -1.13232 26.0142 30.719
RightForeArm  11.8379 57.9453 17.1855
RightHand  -0.208534 3.44327 -2.98724
LeftUpLeg  -34.608 13.5999 3.07964
LeftLeg  96.2682 -1.29234 7.01974
LeftFoot  -5.15449 0.307101 -5.10899
LeftToes  1.48244e-010 1.61973e-010 3.308e-011
2155
root  -23.3167 31.6056 -95.2712 14.3499 -47.7183 -5.37662
RightUpLeg  -0.15589 1.82489 -4.54699
RightLeg  50.8879 0.774115 0.640539
RightFoot  -44.13 6.63876 23.3314
RightToes  7.56698e-010 0 -3.6325e-017
Spine  15.3919 1.86131 14.3515
Spine1  -2.98918 6.84931 -18.0423
HEad  -22.7147 34.7804 -20.6731
LeftShoulder1  1.75703 -1.22659 -31.1014
LeftArm  0.602431 12.9534 -21.4614
LeftForeArm  9.18945 -34.2538 -7.12332
LeftHand  0.161185 -0.142556 -3.3938
RightShoulder  17.9019 37.6618 36.7339
RightArm  -10.1878 30.0266 30.3311
RightForeArm  15.5668 57.1227 16.2343
RightHand  -0.368504 3.59394 -5.0127
LeftUpLeg  -48.1677 13.9267 -0.214418
LeftLeg  95.4595 0.355885 -4.77094
LeftFoot  -14.0181 -0.125219 -8.93394
LeftToes  1.48244e-010 1.61973e-010 3.308e-011
2156
root  -25.506 31.7522 -92.1769 12.1306 -47.2792 -2.9329
RightUpLeg  11.0391 1.56406 -9.10628
RightLeg  40.8583 5.54423 4.83675
RightFoot  -35.0259 5.83176 28.4315
RightToes  7.56698e-010 0 -3.6325e-017
Spine  15.5247 3.86401 9.63834
Spine1  -1.98062 7.58252 -17.6528
HEad  -20.4812 32.5207 -18.4938
LeftShoulder1  1.83427 -1.59642 -29.9136
LeftArm  0.305802 24.5636 -22.0132
LeftForeArm  12.7007 -37.8509 -7.93017
LeftHand  0.11816 0.466266 -2.87668
RightShoulder  16.7093 36.7257 34.8766
RightArm  -15.1432 31.2431 27.7324
RightForeArm  11.9182 53.9872 14.5906
RightHand  -0.409924 3.72114 -5.47785
LeftUpLeg  -57.2309 13.9071 -5.64396
LeftLeg  85.8365 -0.736419 -12.2275
LeftFoot  -19.5903 -0.51368 -8.73659
LeftToes  1.48244e-010 1.61973e-010 3.308e-011
2157
root  -27.5693 32.1239 -89.0737 10.3872 -45.0577 -2.29416
RightUpLeg  20.8862 1.57804 -12.071
RightLeg  32.6147 10.5352 6.95803
RightFoot  -15.3962 1.15642 34.6334
RightToes  7.56698e-010 0 -3.6325e-017
Spine  16.9935 5.56051 5.33357
Spine1  -1.42308 7.68822 -14.6325
HEad  -17.8548 31.5841 -18.4138
LeftShoulder1  1.87694 -1.65808 -30.3168
LeftArm  -0.359752 31.6274 -25.439
LeftForeArm  13.064 -38.704 -8.16373
LeftHand  0.139563 -0.0816328 -2.97704
RightShoulder  15.1522 32.3112 35.835
RightArm  -14.4096 29.2942 25.1802
RightForeArm  7.42363 47.1966 11.5905
RightHand  -0.359272 3.48547 -4.94615
LeftUpLeg  -60.5294 13.6806 -12.0082
LeftLeg  68.5273 -3.25214 -8.32533
LeftFoot  -17.7763 -0.248639 -6.31207
LeftToes  1.48244e-010 1.61973e-010 3.308e-011
2158
root  -29.6313 32.015 -85.7245 12.8372 -42.4636 -6.75495
RightUpLeg  23.6683 4.24874 -7.97498
RightLeg  32.8155 10.3982 6.91918
RightFoot  4.46987 -3.52495 25.2273
RightToes  7.56698e-010 0 -3.6325e-017
Spine  16.314 5.97803 6.46342
Spine1  -0.509129 7.66203 -12.7162
HEad  -17.2834 32.7468 -18.8593
LeftShoulder1  1.88276 -1.56357 -31.1165
LeftArm  -2.16932 33.7646 -30.4495
LeftForeArm  11.8164 -36.8999 -7.7062
LeftHand  0.167838 -0.591714 -3.2168
RightShoulder  14.0585 28.6931 37.2957
RightArm  -8.05136 25.4541 23.3571
RightForeArm  -2.66771 36.0796 8.33575
RightHand  -0.256192 3.27146 -3.67316
LeftUpLeg  -61.932 14.2425 -18.4833
LeftLeg  51.1391 5.71749 8.01183
LeftFoot  -7.15811 -0.44771 13.3774
LeftToes  1.48244e-010 1.61973e-010 3.308e-011
2159
root  -31.3224 31.5511 -82.4768 15.04 -39.8004 -10.7577
RightUpLeg  20.8766 4.77325 -6.53156
RightLeg  42.9933 8.3513 7.97744
RightFoot  5.74326 -3.34261 22.2603
RightToes  7.56698e-010 0 -3.6325e-017
Spine  16.7807 4.40079 8.58538
Spine1  -0.546237 6.47246 -12.1719
HEad  -17.2323 35.274 -19.5064
LeftShoulder1  1.7564 -1.07084 -32.3541
LeftArm  -1.45162 31.2801 -34.4661
LeftForeArm  6.40278 -32.712 -6.87391
LeftHand  0.202515 -0.804523 -3.7361
RightShoulder  13.445 26.4579 38.5377
RightArm  7.38489 22.0345 23.8393
RightForeArm  -13.9646 21.9421 6.12693
RightHand  -0.217847 3.62583 -3.05886
LeftUpLeg  -60.5901 14.4867 -19.7794
LeftLeg  56.2478 12.7713 20.0891
LeftFoot  -16.0014 1.00442 22.0093
LeftToes  1.48244e-010 1.61973e-010 3.308e-011
2160
root  -32.743 31.2475 -79.4775 12.7671 -36.7538 -9.42255
RightUpLeg  13.5233 3.84644 -10.7063
RightLeg  58.9194 1.88156 2.90357
RightFoot  4.85321 -3.04966 21.4406
RightToes  7.56698e-010 0 -3.6325e-017
Spine  20.691 2.21127 6.66744
Spine1  -2.79764 3.94331 -10.0545
HEad  -20.5098 36.8688 -22.3525
LeftShoulder1  1.70187 -0.619031 -35.2011
LeftArm  6.76781 20.9837 -34.5596
LeftForeArm  -2.28877 -27.3233 -6.00585
LeftHand  0.21595 -0.572962 -4.17131
RightShoulder  12.7303 24.6117 38.981
RightArm  -5.3226 17.5633 22.4061
RightForeArm  6.0043 5.73503 14.2554
RightHand  -0.214775 3.71432 -2.99586
LeftUpLeg  -55.4312 11.8863 -19.4718
LeftLeg  63.4606 10.9087 23.037
LeftFoot  -23.9456 1.98203 16.5118
LeftToes  1.48244e-010 1.61973e-010 3.308e-011
2161
root  -34.0162 31.1905 -76.7104 11.582 -33.0358 -6.07242
RightUpLeg  -0.424762 4.76081 -14.6045
RightLeg  75.3859 -0.666861 -4.16581
RightFoot  2.46088 -1.69733 14.0982
RightToes  7.56698e-010 0 -3.6325e-017
Spine  22.3667 0.90409 3.99751
Spine1  -1.95783 2.38134 -8.82813
HEad  -23.7369 37.1193 -25.0814
LeftShoulder1  2.05391 -1.28171 -36.8076
LeftArm  20.3725 5.2467 -34.8976
LeftForeArm  -4.29778 -22.8009 -5.38335
LeftHand  0.130282 -0.881716 -2.33725
RightShoulder  11.6418 22.0585 39.3005
RightArm  -9.12631 11.4888 19.4304
RightForeArm  10.2219 -4.78902 15.3982
RightHand  -0.217834 3.2779 -3.15724
LeftUpLeg  -50.2046 10.7144 -22.5337
LeftLeg  65.3644 9.86739 22.9206
LeftFoot  -30.2441 2.61695 14.5356
LeftToes  1.48244e-010 1.61973e-010 3.308e-011
2162
root  -35.3036 31.1907 -73.9249 11.8367 -28.4214 -4.50605
RightUpLeg  -16.3835 5.3668 -17.1133
RightLeg  86.5226 -0.00791821 -11.1055
RightFoot  -1.90038 -0.687726 8.1575
RightToes  7.56698e-010 0 -3.6325e-017
Spine  22.5931 -0.368927 2.98598
Spine1  -0.992542 0.861125 -7.24738
HEad  -25.5173 36.7129 -26.9346
LeftShoulder1  2.17819 -2.0378 -33.2741
LeftArm  20.006 -6.78178 -40.2815
LeftForeArm  7.62749 -22.4587 -4.87309
LeftHand  0.0147912 -0.912561 -0.182295
RightShoulder  9.62512 17.9447 38.7465
RightArm  -6.1423 5.6181 16.8627
RightForeArm  7.79245 -7.4722 16.3077
RightHand  -0.192786 2.7127 -2.97649
LeftUpLeg  -44.6002 9.71496 -23.4407
LeftLeg  66.5397 8.6977 21.691
LeftFoot  -35.6013 2.70221 11.5245
LeftToes  1.48244e-010 1.61973e-010 3.308e-011
